<svg width="24" height="26" viewBox="0 0 24 26" fill="none" xmlns="http://www.w3.org/2000/svg">
<path d="M11.9996 0.00234153C10.2968 -0.0591988 8.97807 1.1064 7.55013 1.8388C5.60798 2.97934 3.60805 4.03151 1.70458 5.23118C0.459556 6.2337 -0.112479 7.8469 0.0182672 9.40476C0.0255162 12.1668 0.00382209 14.9295 0.02922 17.6912C0.190444 19.3634 1.36086 20.7825 2.86696 21.4821C5.28474 22.8568 7.68833 24.2571 10.1149 25.6157C11.6576 26.3126 13.4837 26.0195 14.8483 25.0767C17.259 23.6895 19.6846 22.3268 22.0858 20.9241C23.4671 19.9498 24.1228 18.2362 23.9811 16.5942C23.9738 13.8321 23.9955 11.0694 23.9701 8.30777C23.8087 6.6357 22.6385 5.21624 21.1322 4.51701C18.7144 3.14258 16.3104 1.74324 13.8839 0.384426C13.2966 0.114152 12.6442 0.00412377 11.9997 0.00228909L11.9996 0.00234153ZM10.4813 6.95787H13.5185V19.0416H10.4813V6.95787V6.95787ZM14.3032 9.58796H17.3389V19.0416H14.3032V9.58796ZM6.65993 14.5196H9.69657V19.0416H6.65993V14.5195V14.5196Z" fill="#41FF48"/>
</svg>
